<svg width="1831.8313964843749px" height="166.4px" xmlns="http://www.w3.org/2000/svg" viewBox="-665.9156982421874 -8.200000000000003 1831.8313964843749 166.4" style="background: none;" preserveAspectRatio="xMidYMid"><defs><linearGradient id="editing-outline-gradient" x1="0.5348994967025017" x2="0.46510050329749836" y1="1.4993908270190957" y2="-0.49939082701909565"><stop offset="0" stop-color="#1509dd"></stop><stop offset="1" stop-color="#bbcedd"></stop></linearGradient><filter id="editing-outline" x="-100%" y="-100%" width="300%" height="300%"><feMorphology in="SourceGraphic" operator="dilate" radius="3" result="outline"></feMorphology><feComposite operator="out" in="outline" in2="SourceAlpha"></feComposite></filter></defs><g filter="url(#editing-outline)"><g transform="translate(-417.72499895095825, 118.68117332458496)"><path d="M42.39-35.16L42.39-35.16L42.39-35.16Q56.02-32.52 56.02-17.11L56.02-17.11L56.02-17.11Q56.02-9.59 51.37-4.79L51.37-4.79L51.37-4.79Q46.72 0 38.16 0L38.16 0L5.73 0L5.73 0Q4.32 0 4.32-1.41L4.32-1.41L4.32-1.41Q4.32-2.82 5.73-2.82L5.73-2.82L12.31-2.82L12.31-2.82Q13.72-2.82 13.72-4.23L13.72-4.23L13.72-61.57L13.72-61.57Q13.72-62.98 12.31-62.98L12.31-62.98L5.73-62.98L5.73-62.98Q4.32-62.98 4.32-64.39L4.32-64.39L4.32-64.39Q4.32-65.80 5.73-65.80L5.73-65.80L34.40-65.80L34.40-65.80Q41.92-65.80 46.62-61.10L46.62-61.10L46.62-61.10Q51.32-56.40 51.32-49.35L51.32-49.35L51.32-49.35Q51.32-39.39 42.39-35.16ZM16.54-61.57L16.54-37.13L16.54-37.13Q16.54-35.72 17.95-35.72L17.95-35.72L34.87-35.72L34.87-35.72Q40.80-35.72 44.65-39.72L44.65-39.72L44.65-39.72Q48.50-43.71 48.50-49.54L48.50-49.54L48.50-49.54Q48.50-55.37 44.70-59.17L44.70-59.17L44.70-59.17Q40.89-62.98 34.40-62.98L34.40-62.98L17.95-62.98L17.95-62.98Q16.54-62.98 16.54-61.57L16.54-61.57ZM16.54-31.49L16.54-4.23L16.54-4.23Q16.54-2.82 17.95-2.82L17.95-2.82L38.16-2.82L38.16-2.82Q45.21-2.82 49.21-6.82L49.21-6.82L49.21-6.82Q53.20-10.81 53.20-17.86L53.20-17.86L53.20-17.86Q53.20-24.91 49.21-28.91L49.21-28.91L49.21-28.91Q45.21-32.90 38.16-32.90L38.16-32.90L17.95-32.90L17.95-32.90Q16.54-32.90 16.54-31.49L16.54-31.49ZM100.67-45.12L98.89-45.12L98.89-45.12Q87.04-45.12 79.15-35.81L79.15-35.81L79.15-35.81Q76.89-33.18 75.39-30.55L75.39-30.55L75.39-4.23L75.39-4.23Q75.39-2.82 76.80-2.82L76.80-2.82L84.32-2.82L84.32-2.82Q85.73-2.82 85.73-1.41L85.73-1.41L85.73-1.41Q85.73 0 84.32 0L84.32 0L64.58 0L64.58 0Q63.17 0 63.17-1.41L63.17-1.41L63.17-1.41Q63.17-2.82 64.58-2.82L64.58-2.82L71.16-2.82L71.16-2.82Q72.57-2.82 72.57-4.23L72.57-4.23L72.57-42.77L72.57-42.77Q72.57-44.18 71.16-44.18L71.16-44.18L64.58-44.18L64.58-44.18Q63.17-44.18 63.17-45.59L63.17-45.59L63.17-45.59Q63.17-47 64.58-47L64.58-47L73.98-47L73.98-47Q75.39-47 75.39-45.59L75.39-45.59L75.39-38.16L75.39-38.16Q75.39-35.81 77.36-38.07L77.36-38.07L77.36-38.07Q80.84-42.02 86.43-44.98L86.43-44.98L86.43-44.98Q92.03-47.94 98.89-47.94L98.89-47.94L103.49-47.94L103.49-47.94Q104.90-47.94 104.90-46.53L104.90-46.53L104.90-34.78L104.90-34.78Q104.90-33.37 103.49-33.37L103.49-33.37L103.49-33.37Q102.08-33.37 102.08-34.78L102.08-34.78L102.08-43.71L102.08-43.71Q102.08-45.12 100.67-45.12L100.67-45.12ZM147.02-14.57L147.02-23.03L147.02-23.03Q147.02-24.44 145.61-24.44L145.61-24.44L130.10-24.44L130.10-24.44Q121.92-24.44 118.02-21.24L118.02-21.24L118.02-21.24Q114.12-18.05 114.12-13.11L114.12-13.11L114.12-13.11Q114.12-8.18 117.74-5.03L117.74-5.03L117.74-5.03Q121.35-1.88 128.69-1.88L128.69-1.88L128.69-1.88Q137.80-1.88 144.76-11.09L144.76-11.09L144.76-11.09Q145.98-12.69 147.02-14.57L147.02-14.57ZM132.35-47.94L132.35-47.94L132.35-47.94Q140.25-47.94 145.04-43.48L145.04-43.48L145.04-43.48Q149.84-39.01 149.84-32.43L149.84-32.43L149.84-4.23L149.84-4.23Q149.84-2.82 151.25-2.82L151.25-2.82L157.83-2.82L157.83-2.82Q159.24-2.82 159.24-1.41L159.24-1.41L159.24-1.41Q159.24 0 157.83 0L157.83 0L148.43 0L148.43 0Q147.02 0 147.02-1.41L147.02-1.41L147.02-6.67L147.02-6.67Q147.02-7.61 146.64-7.99L146.64-7.99L146.64-7.99Q146.26-8.37 145.51-7.61L145.51-7.61L145.51-7.61Q142.97-4.42 138.46-1.74L138.46-1.74L138.46-1.74Q133.95 0.94 129.06 0.94L129.06 0.94L129.06 0.94Q120.32 0.94 115.81-2.96L115.81-2.96L115.81-2.96Q111.30-6.86 111.30-13.07L111.30-13.07L111.30-13.07Q111.30-19.27 116.47-23.27L116.47-23.27L116.47-23.27Q121.64-27.26 130.10-27.26L130.10-27.26L145.61-27.26L145.61-27.26Q147.02-27.26 147.02-28.67L147.02-28.67L147.02-32.43L147.02-32.43Q147.02-37.88 142.88-41.50L142.88-41.50L142.88-41.50Q138.74-45.12 132.73-45.12L132.73-45.12L132.73-45.12Q126.71-45.12 122.86-43.48L122.86-43.48L122.86-43.48Q119.00-41.83 117.45-40.61L117.45-40.61L117.45-40.61Q115.90-39.39 115.10-40.51L115.10-40.51L115.10-40.51Q114.30-41.64 115.34-42.39L115.34-42.39L115.34-42.39Q122.11-47.94 132.35-47.94ZM166.10 0L166.10 0Q164.69 0 164.69-1.41L164.69-1.41L164.69-1.41Q164.69-2.82 166.10-2.82L166.10-2.82L172.68-2.82L172.68-2.82Q174.09-2.82 174.09-4.23L174.09-4.23L174.09-42.77L174.09-42.77Q174.09-44.18 172.68-44.18L172.68-44.18L166.10-44.18L166.10-44.18Q164.69-44.18 164.69-45.59L164.69-45.59L164.69-45.59Q164.69-47 166.10-47L166.10-47L175.50-47L175.50-47Q176.91-47 176.91-45.59L176.91-45.59L176.91-4.23L176.91-4.23Q176.91-2.82 178.32-2.82L178.32-2.82L184.90-2.82L184.90-2.82Q186.31-2.82 186.31-1.41L186.31-1.41L186.31-1.41Q186.31 0 184.90 0L184.90 0L166.10 0ZM172.35-55.60L172.35-55.60L172.35-55.60Q171.27-56.68 171.27-58.28L171.27-58.28L171.27-58.28Q171.27-59.88 172.35-60.96L172.35-60.96L172.35-60.96Q173.43-62.04 175.03-62.04L175.03-62.04L175.03-62.04Q176.63-62.04 177.71-60.96L177.71-60.96L177.71-60.96Q178.79-59.88 178.79-58.28L178.79-58.28L178.79-58.28Q178.79-56.68 177.71-55.60L177.71-55.60L177.71-55.60Q176.63-54.52 175.03-54.52L175.03-54.52L175.03-54.52Q173.43-54.52 172.35-55.60ZM192.89-2.82L192.89-2.82L199.47-2.82L199.47-2.82Q200.88-2.82 200.88-4.23L200.88-4.23L200.88-42.77L200.88-42.77Q200.88-44.18 199.47-44.18L199.47-44.18L192.89-44.18L192.89-44.18Q191.48-44.18 191.48-45.59L191.48-45.59L191.48-45.59Q191.48-47 192.89-47L192.89-47L202.29-47L202.29-47Q203.70-47 203.70-45.59L203.70-45.59L203.70-40.33L203.70-40.33Q203.70-39.39 204.07-39.01L204.07-39.01L204.07-39.01Q204.45-38.63 205.20-39.39L205.20-39.39L205.20-39.39Q212.82-47.94 221.75-47.94L221.75-47.94L221.75-47.94Q230.68-47.94 235.52-43.10L235.52-43.10L235.52-43.10Q240.36-38.26 240.36-29.14L240.36-29.14L240.36-4.23L240.36-4.23Q240.36-2.82 241.77-2.82L241.77-2.82L248.35-2.82L248.35-2.82Q249.76-2.82 249.76-1.41L249.76-1.41L249.76-1.41Q249.76 0 248.35 0L248.35 0L230.49 0L230.49 0Q229.08 0 229.08-1.41L229.08-1.41L229.08-1.41Q229.08-2.82 230.49-2.82L230.49-2.82L236.13-2.82L236.13-2.82Q237.54-2.82 237.54-4.23L237.54-4.23L237.54-29.14L237.54-29.14Q237.54-37.13 233.40-41.13L233.40-41.13L233.40-41.13Q229.27-45.12 222.12-45.12L222.12-45.12L222.12-45.12Q214.98-45.12 208.59-38.73L208.59-38.73L208.59-38.73Q205.77-35.91 203.70-32.43L203.70-32.43L203.70-4.23L203.70-4.23Q203.70-2.82 205.11-2.82L205.11-2.82L210.75-2.82L210.75-2.82Q212.16-2.82 212.16-1.41L212.16-1.41L212.16-1.41Q212.16 0 210.75 0L210.75 0L192.89 0L192.89 0Q191.48 0 191.48-1.41L191.48-1.41L191.48-1.41Q191.48-2.82 192.89-2.82ZM282.94-2.82L282.94-2.82L289.52-2.82L289.52-2.82Q290.93-2.82 290.93-4.23L290.93-4.23L290.93-61.57L290.93-61.57Q290.93-62.98 289.52-62.98L289.52-62.98L282.94-62.98L282.94-62.98Q281.53-62.98 281.53-64.39L281.53-64.39L281.53-64.39Q281.53-65.80 282.94-65.80L282.94-65.80L293.28-65.80L293.28-65.80Q294.78-65.80 295.63-64.39L295.63-64.39L334.17-5.64L334.17-5.64Q334.36-5.26 334.73-5.31L334.73-5.31L334.73-5.31Q335.11-5.36 335.11-6.11L335.11-6.11L335.11-61.57L335.11-61.57Q335.11-62.98 333.70-62.98L333.70-62.98L328.06-62.98L328.06-62.98Q326.65-62.98 326.65-64.39L326.65-64.39L326.65-64.39Q326.65-65.80 328.06-65.80L328.06-65.80L345.92-65.80L345.92-65.80Q347.33-65.80 347.33-64.39L347.33-64.39L347.33-64.39Q347.33-62.98 345.92-62.98L345.92-62.98L339.34-62.98L339.34-62.98Q337.93-62.98 337.93-61.57L337.93-61.57L337.93-4.23L337.93-4.23Q337.93-2.82 339.34-2.82L339.34-2.82L345.92-2.82L345.92-2.82Q347.33-2.82 347.33-1.41L347.33-1.41L347.33-1.41Q347.33 0 345.92 0L345.92 0L335.58 0L335.58 0Q334.08 0 333.23-1.41L333.23-1.41L294.69-60.16L294.69-60.16Q294.50-60.54 294.13-60.49L294.13-60.49L294.13-60.49Q293.75-60.44 293.75-59.69L293.75-59.69L293.75-4.23L293.75-4.23Q293.75-2.82 295.16-2.82L295.16-2.82L300.80-2.82L300.80-2.82Q302.21-2.82 302.21-1.41L302.21-1.41L302.21-1.41Q302.21 0 300.80 0L300.80 0L282.94 0L282.94 0Q281.53 0 281.53-1.41L281.53-1.41L281.53-1.41Q281.53-2.82 282.94-2.82ZM390.19-6.58L390.19-6.58L390.19-6.58Q391.70-7.71 392.50-8.46L392.50-8.46L392.50-8.46Q393.30-9.21 393.77-8.98L393.77-8.98L393.77-8.98Q394.24-8.74 394.94-7.94L394.94-7.94L394.94-7.94Q395.65-7.14 394.52-6.20L394.52-6.20L394.52-6.20Q391.13-3.29 386.72-1.18L386.72-1.18L386.72-1.18Q382.30 0.94 375.44 0.94L375.44 0.94L375.44 0.94Q365.47 0.94 359.41-5.92L359.41-5.92L359.41-5.92Q353.35-12.78 353.35-23.50L353.35-23.50L353.35-23.50Q353.35-34.22 359.41-41.08L359.41-41.08L359.41-41.08Q365.47-47.94 375.30-47.94L375.30-47.94L375.30-47.94Q385.12-47.94 391.32-41.74L391.32-41.74L391.32-41.74Q397.53-35.53 397.53-26.79L397.53-26.79L397.53-25.38L397.53-25.38Q397.53-22.56 394.71-22.56L394.71-22.56L357.67-22.56L357.67-22.56Q356.07-22.56 356.26-21.15L356.26-21.15L356.26-21.15Q356.82-12.97 361.85-7.43L361.85-7.43L361.85-7.43Q366.88-1.88 375.67-1.88L375.67-1.88L375.67-1.88Q384.46-1.88 390.19-6.58ZM356.35-26.51L356.35-26.51L356.35-26.51Q356.35-25.38 357.67-25.38L357.67-25.38L393.30-25.38L393.30-25.38Q394.71-25.38 394.71-26.79L394.71-26.79L394.71-26.79Q394.71-34.31 389.21-39.72L389.21-39.72L389.21-39.72Q383.71-45.12 375.30-45.12L375.30-45.12L375.30-45.12Q366.88-45.12 361.62-39.20L361.62-39.20L361.62-39.20Q356.35-33.28 356.35-26.51ZM437.01-6.58L437.01-6.58L437.01-6.58Q437.95-7.52 438.70-6.77L438.70-6.77L438.70-6.77Q439.45-6.02 439.45-5.55L439.45-5.55L439.45-5.55Q439.54-5.08 438.79-4.32L438.79-4.32L438.79-4.32Q436.54-2.07 434.28-0.94L434.28-0.94L434.28-0.94Q428.45 1.03 427.61 0.99L427.61 0.99L427.61 0.99Q426.76 0.94 426.67 0.94L426.67 0.94L426.67 0.94Q420.09 0.94 416.33-3.29L416.33-3.29L416.33-3.29Q412.57-7.52 412.57-15.51L412.57-15.51L412.57-42.77L412.57-42.77Q412.57-44.18 411.16-44.18L411.16-44.18L404.58-44.18L404.58-44.18Q403.17-44.18 403.17-45.59L403.17-45.59L403.17-45.59Q403.17-47 404.58-47L404.58-47L411.16-47L411.16-47Q412.57-47 412.57-48.41L412.57-48.41L412.57-64.39L412.57-64.39Q412.57-65.80 413.98-65.80L413.98-65.80L413.98-65.80Q415.39-65.80 415.39-64.39L415.39-64.39L415.39-48.41L415.39-48.41Q415.39-47 416.80-47L416.80-47L432.78-47L432.78-47Q434.19-47 434.19-45.59L434.19-45.59L434.19-45.59Q434.19-44.18 432.78-44.18L432.78-44.18L416.80-44.18L416.80-44.18Q415.39-44.18 415.39-42.77L415.39-42.77L415.39-15.51L415.39-15.51Q415.39-8.74 418.39-5.31L418.39-5.31L418.39-5.31Q421.40-1.88 426.71-1.88L426.71-1.88L426.71-1.88Q432.02-1.88 437.01-6.58ZM440.58-47L440.58-47L458.44-47L458.44-47Q459.85-47 459.85-45.59L459.85-45.59L459.85-45.59Q459.85-44.18 458.44-44.18L458.44-44.18L452.80-44.18L452.80-44.18Q451.11-44.18 451.86-42.77L451.86-42.77L464.55-6.77L464.55-6.77Q464.74-6.20 465.11-6.20L465.11-6.20L465.11-6.20Q465.49-6.20 465.68-6.77L465.68-6.77L477.99-45.59L477.99-45.59Q478.37-47 479.87-47L479.87-47L479.87-47Q481.37-47 481.75-45.59L481.75-45.59L494.06-6.77L494.06-6.77Q494.25-6.20 494.63-6.20L494.63-6.20L494.63-6.20Q495.00-6.20 495.19-6.77L495.19-6.77L507.88-42.77L507.88-42.77Q508.63-44.18 506.94-44.18L506.94-44.18L501.30-44.18L501.30-44.18Q499.89-44.18 499.89-45.59L499.89-45.59L499.89-45.59Q499.89-47 501.30-47L501.30-47L519.16-47L519.16-47Q520.57-47 520.57-45.59L520.57-45.59L520.57-45.59Q520.57-44.18 519.16-44.18L519.16-44.18L513.05-44.18L513.05-44.18Q511.64-44.18 511.17-42.77L511.17-42.77L496.23-0.47L496.23-0.47Q495.85 0.94 494.63 0.94L494.63 0.94L494.63 0.94Q493.41 0.94 493.03-0.47L493.03-0.47L480.81-39.01L480.81-39.01Q480.62-39.76 479.87-39.76L479.87-39.76L479.87-39.76Q479.12-39.76 478.93-39.01L478.93-39.01L466.71-0.47L466.71-0.47Q466.33 0.94 465.11 0.94L465.11 0.94L465.11 0.94Q463.89 0.94 463.51-0.47L463.51-0.47L448.57-42.77L448.57-42.77Q448.10-44.18 446.69-44.18L446.69-44.18L440.58-44.18L440.58-44.18Q439.17-44.18 439.17-45.59L439.17-45.59L439.17-45.59Q439.17-47 440.58-47ZM530.35-5.83L530.35-5.83L530.35-5.83Q523.96-12.60 523.96-23.50L523.96-23.50L523.96-23.50Q523.96-34.40 530.35-41.17L530.35-41.17L530.35-41.17Q536.74-47.94 546.99-47.94L546.99-47.94L546.99-47.94Q557.23-47.94 563.62-41.17L563.62-41.17L563.62-41.17Q570.02-34.40 570.02-23.50L570.02-23.50L570.02-23.50Q570.02-12.60 563.62-5.83L563.62-5.83L563.62-5.83Q557.23 0.94 546.99 0.94L546.99 0.94L546.99 0.94Q536.74 0.94 530.35-5.83ZM546.99-45.12L546.99-45.12L546.99-45.12Q537.87-45.12 532.32-39.20L532.32-39.20L532.32-39.20Q526.78-33.28 526.78-23.45L526.78-23.45L526.78-23.45Q526.78-13.63 532.28-7.75L532.28-7.75L532.28-7.75Q537.77-1.88 546.99-1.88L546.99-1.88L546.99-1.88Q556.20-1.88 561.70-7.75L561.70-7.75L561.70-7.75Q567.20-13.63 567.20-23.45L567.20-23.45L567.20-23.45Q567.20-33.28 561.65-39.20L561.65-39.20L561.65-39.20Q556.10-45.12 546.99-45.12ZM615.04-45.12L613.26-45.12L613.26-45.12Q601.41-45.12 593.52-35.81L593.52-35.81L593.52-35.81Q591.26-33.18 589.76-30.55L589.76-30.55L589.76-4.23L589.76-4.23Q589.76-2.82 591.17-2.82L591.17-2.82L598.69-2.82L598.69-2.82Q600.10-2.82 600.10-1.41L600.10-1.41L600.10-1.41Q600.10 0 598.69 0L598.69 0L578.95 0L578.95 0Q577.54 0 577.54-1.41L577.54-1.41L577.54-1.41Q577.54-2.82 578.95-2.82L578.95-2.82L585.53-2.82L585.53-2.82Q586.94-2.82 586.94-4.23L586.94-4.23L586.94-42.77L586.94-42.77Q586.94-44.18 585.53-44.18L585.53-44.18L578.95-44.18L578.95-44.18Q577.54-44.18 577.54-45.59L577.54-45.59L577.54-45.59Q577.54-47 578.95-47L578.95-47L588.35-47L588.35-47Q589.76-47 589.76-45.59L589.76-45.59L589.76-38.16L589.76-38.16Q589.76-35.81 591.73-38.07L591.73-38.07L591.73-38.07Q595.21-42.02 600.80-44.98L600.80-44.98L600.80-44.98Q606.39-47.94 613.26-47.94L613.26-47.94L617.86-47.94L617.86-47.94Q619.27-47.94 619.27-46.53L619.27-46.53L619.27-34.78L619.27-34.78Q619.27-33.37 617.86-33.37L617.86-33.37L617.86-33.37Q616.45-33.37 616.45-34.78L616.45-34.78L616.45-43.71L616.45-43.71Q616.45-45.12 615.04-45.12L615.04-45.12ZM624.07-2.82L624.07-2.82L630.65-2.82L630.65-2.82Q632.06-2.82 632.06-4.23L632.06-4.23L632.06-61.57L632.06-61.57Q632.06-62.98 630.65-62.98L630.65-62.98L624.07-62.98L624.07-62.98Q622.66-62.98 622.66-64.39L622.66-64.39L622.66-64.39Q622.66-65.80 624.07-65.80L624.07-65.80L633.47-65.80L633.47-65.80Q634.88-65.80 634.88-64.39L634.88-64.39L634.88-18.14L657.44-42.77L657.44-42.77Q658-43.24 657.86-43.71L657.86-43.71L657.86-43.71Q657.72-44.18 656.97-44.18L656.97-44.18L651.70-44.18L651.70-44.18Q650.29-44.18 650.29-45.59L650.29-45.59L650.29-45.59Q650.29-47 651.70-47L651.70-47L670.13-47L670.13-47Q671.54-47 671.54-45.59L671.54-45.59L671.54-45.59Q671.54-44.18 670.13-44.18L670.13-44.18L664.11-44.18L664.11-44.18Q663.08-44.18 661.67-42.77L661.67-42.77L647.57-27.45L664.49-4.23L664.49-4.23Q665.71-2.82 666.84-2.82L666.84-2.82L672.95-2.82L672.95-2.82Q674.36-2.82 674.36-1.41L674.36-1.41L674.36-1.41Q674.36 0 672.95 0L672.95 0L655.09 0L655.09 0Q653.68 0 653.68-1.41L653.68-1.41L653.68-1.41Q653.68-2.82 655.09-2.82L655.09-2.82L660.26-2.82L660.26-2.82Q661.95-2.82 660.73-4.23L660.73-4.23L645.50-25.19L634.88-13.54L634.88-4.23L634.88-4.23Q634.88-2.82 636.29-2.82L636.29-2.82L641.93-2.82L641.93-2.82Q643.34-2.82 643.34-1.41L643.34-1.41L643.34-1.41Q643.34 0 641.93 0L641.93 0L624.07 0L624.07 0Q622.66 0 622.66-1.41L622.66-1.41L622.66-1.41Q622.66-2.82 624.07-2.82ZM683.43-0.33L683.43-0.33L683.43-0.33Q682.16-1.60 682.16-3.76L682.16-3.76L682.16-3.76Q682.16-5.92 683.43-7.19L683.43-7.19L683.43-7.19Q684.70-8.46 686.86-8.46L686.86-8.46L686.86-8.46Q689.02-8.46 690.29-7.19L690.29-7.19L690.29-7.19Q691.56-5.92 691.56-3.76L691.56-3.76L691.56-3.76Q691.56-1.60 690.29-0.33L690.29-0.33L690.29-0.33Q689.02 0.94 686.86 0.94L686.86 0.94L686.86 0.94Q684.70 0.94 683.43-0.33ZM730.00-32.90L730.00-32.90L730.00-32.90Q730.00-47.56 738.28-57.15L738.28-57.15L738.28-57.15Q746.55-66.74 759.61-66.74L759.61-66.74L759.61-66.74Q770.99-66.74 780.20-58.75L780.20-58.75L780.20-58.75Q781.70-57.53 781.70-59.69L781.70-59.69L781.70-64.39L781.70-64.39Q781.70-65.80 783.11-65.80L783.11-65.80L783.11-65.80Q784.52-65.80 784.52-64.39L784.52-64.39L784.52-46.53L784.52-46.53Q784.52-45.12 783.11-45.12L783.11-45.12L783.11-45.12Q781.70-45.12 781.70-46.53L781.70-46.53L781.70-53.11L781.70-53.11Q779.17-56.02 775.78-58.47L775.78-58.47L775.78-58.47Q768.07-63.92 759.61-63.92L759.61-63.92L759.61-63.92Q748.05-63.92 740.44-55.04L740.44-55.04L740.44-55.04Q732.82-46.15 732.82-32.76L732.82-32.76L732.82-32.76Q732.82-19.36 740.72-10.62L740.72-10.62L740.72-10.62Q748.62-1.88 761.78-1.88L761.78-1.88L761.78-1.88Q774.94-1.88 783.02-10.43L783.02-10.43L783.02-10.43Q783.96-11.37 784.71-10.62L784.71-10.62L784.71-10.62Q785.46-9.87 785.46-9.40L785.46-9.40L785.46-9.40Q785.46-8.93 784.99-8.46L784.99-8.46L784.99-8.46Q775.41 0.94 761.35 0.94L761.35 0.94L761.35 0.94Q747.30 0.94 738.65-8.65L738.65-8.65L738.65-8.65Q730.00-18.24 730.00-32.90ZM799.94-5.83L799.94-5.83L799.94-5.83Q793.55-12.60 793.55-23.50L793.55-23.50L793.55-23.50Q793.55-34.40 799.94-41.17L799.94-41.17L799.94-41.17Q806.33-47.94 816.58-47.94L816.58-47.94L816.58-47.94Q826.82-47.94 833.22-41.17L833.22-41.17L833.22-41.17Q839.61-34.40 839.61-23.50L839.61-23.50L839.61-23.50Q839.61-12.60 833.22-5.83L833.22-5.83L833.22-5.83Q826.82 0.94 816.58 0.94L816.58 0.94L816.58 0.94Q806.33 0.94 799.94-5.83ZM816.58-45.12L816.58-45.12L816.58-45.12Q807.46-45.12 801.91-39.20L801.91-39.20L801.91-39.20Q796.37-33.28 796.37-23.45L796.37-23.45L796.37-23.45Q796.37-13.63 801.87-7.75L801.87-7.75L801.87-7.75Q807.37-1.88 816.58-1.88L816.58-1.88L816.58-1.88Q825.79-1.88 831.29-7.75L831.29-7.75L831.29-7.75Q836.79-13.63 836.79-23.45L836.79-23.45L836.79-23.45Q836.79-33.28 831.24-39.20L831.24-39.20L831.24-39.20Q825.70-45.12 816.58-45.12ZM848.54-2.82L848.54-2.82L855.12-2.82L855.12-2.82Q856.53-2.82 856.53-4.23L856.53-4.23L856.53-42.77L856.53-42.77Q856.53-44.18 855.12-44.18L855.12-44.18L848.54-44.18L848.54-44.18Q847.13-44.18 847.13-45.59L847.13-45.59L847.13-45.59Q847.13-47 848.54-47L848.54-47L857.94-47L857.94-47Q859.35-47 859.35-45.59L859.35-45.59L859.35-40.33L859.35-40.33Q859.35-37.88 860.85-39.39L860.85-39.39L860.85-39.39Q868.18-47.94 875.33-47.94L875.33-47.94L875.33-47.94Q880.78-47.94 884.82-44.84L884.82-44.84L884.82-44.84Q888.86-41.74 890.46-35.91L890.46-35.91L890.46-35.91Q892.34-39.20 894.97-41.92L894.97-41.92L894.97-41.92Q900.80-47.94 907.57-47.94L907.57-47.94L907.57-47.94Q914.34-47.94 918.80-43.01L918.80-43.01L918.80-43.01Q923.27-38.07 923.27-29.14L923.27-29.14L923.27-4.23L923.27-4.23Q923.27-2.82 924.68-2.82L924.68-2.82L931.26-2.82L931.26-2.82Q932.67-2.82 932.67-1.41L932.67-1.41L932.67-1.41Q932.67 0 931.26 0L931.26 0L913.40 0L913.40 0Q911.99 0 911.99-1.41L911.99-1.41L911.99-1.41Q911.99-2.82 913.40-2.82L913.40-2.82L919.04-2.82L919.04-2.82Q920.45-2.82 920.45-4.23L920.45-4.23L920.45-29.14L920.45-29.14Q920.45-36.85 916.69-40.98L916.69-40.98L916.69-40.98Q912.93-45.12 907.19-45.12L907.19-45.12L907.19-45.12Q901.46-45.12 895.63-38.54L895.63-38.54L895.63-38.54Q893.00-35.53 891.12-31.96L891.12-31.96L891.12-31.96Q891.31-29.89 891.31-29.14L891.31-29.14L891.31-4.23L891.31-4.23Q891.31-2.82 892.72-2.82L892.72-2.82L898.36-2.82L898.36-2.82Q899.77-2.82 899.77-1.41L899.77-1.41L899.77-1.41Q899.77 0 898.36 0L898.36 0L881.44 0L881.44 0Q880.03 0 880.03-1.41L880.03-1.41L880.03-1.41Q880.03-2.82 881.44-2.82L881.44-2.82L887.08-2.82L887.08-2.82Q888.49-2.82 888.49-4.23L888.49-4.23L888.49-29.14L888.49-29.14Q888.49-36.85 884.73-40.98L884.73-40.98L884.73-40.98Q880.97-45.12 875.28-45.12L875.28-45.12L875.28-45.12Q869.59-45.12 863.95-38.73L863.95-38.73L863.95-38.73Q861.51-36.00 859.35-32.43L859.35-32.43L859.35-4.23L859.35-4.23Q859.35-2.82 860.76-2.82L860.76-2.82L866.40-2.82L866.40-2.82Q867.81-2.82 867.81-1.41L867.81-1.41L867.81-1.41Q867.81 0 866.40 0L866.40 0L848.54 0L848.54 0Q847.13 0 847.13-1.41L847.13-1.41L847.13-1.41Q847.13-2.82 848.54-2.82ZM938.78 0L938.78 0Q937.37 0 937.37-1.41L937.37-1.41L937.37-1.41Q937.37-2.82 938.78-2.82L938.78-2.82L945.36-2.82L945.36-2.82Q946.77-2.82 946.77-4.23L946.77-4.23L946.77-42.77L946.77-42.77Q946.77-44.18 945.36-44.18L945.36-44.18L938.78-44.18L938.78-44.18Q937.37-44.18 937.37-45.59L937.37-45.59L937.37-45.59Q937.37-47 938.78-47L938.78-47L948.18-47L948.18-47Q949.59-47 949.59-45.59L949.59-45.59L949.59-4.23L949.59-4.23Q949.59-2.82 951.00-2.82L951.00-2.82L957.58-2.82L957.58-2.82Q958.99-2.82 958.99-1.41L958.99-1.41L958.99-1.41Q958.99 0 957.58 0L957.58 0L938.78 0ZM945.03-55.60L945.03-55.60L945.03-55.60Q943.95-56.68 943.95-58.28L943.95-58.28L943.95-58.28Q943.95-59.88 945.03-60.96L945.03-60.96L945.03-60.96Q946.11-62.04 947.71-62.04L947.71-62.04L947.71-62.04Q949.31-62.04 950.39-60.96L950.39-60.96L950.39-60.96Q951.47-59.88 951.47-58.28L951.47-58.28L951.47-58.28Q951.47-56.68 950.39-55.60L950.39-55.60L950.39-55.60Q949.31-54.52 947.71-54.52L947.71-54.52L947.71-54.52Q946.11-54.52 945.03-55.60ZM965.57-2.82L965.57-2.82L972.15-2.82L972.15-2.82Q973.56-2.82 973.56-4.23L973.56-4.23L973.56-42.77L973.56-42.77Q973.56-44.18 972.15-44.18L972.15-44.18L965.57-44.18L965.57-44.18Q964.16-44.18 964.16-45.59L964.16-45.59L964.16-45.59Q964.16-47 965.57-47L965.57-47L974.97-47L974.97-47Q976.38-47 976.38-45.59L976.38-45.59L976.38-40.33L976.38-40.33Q976.38-39.39 976.75-39.01L976.75-39.01L976.75-39.01Q977.13-38.63 977.88-39.39L977.88-39.39L977.88-39.39Q985.50-47.94 994.43-47.94L994.43-47.94L994.43-47.94Q1003.36-47.94 1008.20-43.10L1008.20-43.10L1008.20-43.10Q1013.04-38.26 1013.04-29.14L1013.04-29.14L1013.04-4.23L1013.04-4.23Q1013.04-2.82 1014.45-2.82L1014.45-2.82L1021.03-2.82L1021.03-2.82Q1022.44-2.82 1022.44-1.41L1022.44-1.41L1022.44-1.41Q1022.44 0 1021.03 0L1021.03 0L1003.17 0L1003.17 0Q1001.76 0 1001.76-1.41L1001.76-1.41L1001.76-1.41Q1001.76-2.82 1003.17-2.82L1003.17-2.82L1008.81-2.82L1008.81-2.82Q1010.22-2.82 1010.22-4.23L1010.22-4.23L1010.22-29.14L1010.22-29.14Q1010.22-37.13 1006.08-41.13L1006.08-41.13L1006.08-41.13Q1001.95-45.12 994.80-45.12L994.80-45.12L994.80-45.12Q987.66-45.12 981.27-38.73L981.27-38.73L981.27-38.73Q978.45-35.91 976.38-32.43L976.38-32.43L976.38-4.23L976.38-4.23Q976.38-2.82 977.79-2.82L977.79-2.82L983.43-2.82L983.43-2.82Q984.84-2.82 984.84-1.41L984.84-1.41L984.84-1.41Q984.84 0 983.43 0L983.43 0L965.57 0L965.57 0Q964.16 0 964.16-1.41L964.16-1.41L964.16-1.41Q964.16-2.82 965.57-2.82ZM1071.98 5.17L1071.98 5.17Q1071.98-6.58 1050.36-6.58L1050.36-6.58L1050.36-6.58Q1028.74-6.58 1028.74 5.17L1028.74 5.17L1028.74 5.17Q1028.74 16.92 1050.36 16.92L1050.36 16.92L1050.36 16.92Q1067.37 16.92 1070.94 9.78L1070.94 9.78L1070.94 9.78Q1072.07 7.61 1071.98 5.17L1071.98 5.17ZM1050.36-17.86L1050.36-17.86L1050.36-17.86Q1059.85-17.86 1064.03-21.48L1064.03-21.48L1064.03-21.48Q1068.22-25.10 1068.22-31.44L1068.22-31.44L1068.22-31.44Q1068.22-37.79 1064.03-41.45L1064.03-41.45L1064.03-41.45Q1059.85-45.12 1050.36-45.12L1050.36-45.12L1050.36-45.12Q1040.86-45.12 1036.68-41.45L1036.68-41.45L1036.68-41.45Q1032.50-37.79 1032.50-31.44L1032.50-31.44L1032.50-31.44Q1032.50-25.10 1036.68-21.48L1036.68-21.48L1036.68-21.48Q1040.86-17.86 1050.36-17.86ZM1031.09-13.07L1031.09-13.07L1031.09-13.07Q1031.09-9.40 1038.61-9.40L1038.61-9.40L1050.36-9.40L1050.36-9.40Q1069.25-9.40 1073.48-0.75L1073.48-0.75L1073.48-0.75Q1074.80 1.88 1074.80 5.17L1074.80 5.17L1074.80 5.17Q1074.89 15.60 1061.73 18.61L1061.73 18.61L1061.73 18.61Q1057.03 19.74 1050.36 19.74L1050.36 19.74L1050.36 19.74Q1031.46 19.74 1027.23 11.09L1027.23 11.09L1027.23 11.09Q1025.92 8.46 1025.92 5.17L1025.92 5.17L1025.92 5.17Q1025.92 1.97 1027.75-1.13L1027.75-1.13L1027.75-1.13Q1029.58-4.23 1032.97-5.92L1032.97-5.92L1032.97-5.92Q1033.62-6.20 1033.62-6.72L1033.62-6.72L1033.62-6.72Q1033.62-7.24 1032.40-7.66L1032.40-7.66L1032.40-7.66Q1031.18-8.08 1029.77-9.59L1029.77-9.59L1029.77-9.59Q1028.27-11.09 1028.27-13.35L1028.27-13.35L1028.27-13.35Q1028.27-17.01 1033.25-19.18L1033.25-19.18L1033.25-19.18Q1034.47-19.83 1033.15-21.34L1033.15-21.34L1033.15-21.34Q1029.77-25.10 1029.72-32.01L1029.72-32.01L1029.72-32.01Q1029.68-38.92 1034.89-43.43L1034.89-43.43L1034.89-43.43Q1040.11-47.94 1049.60-47.94L1049.60-47.94L1049.60-47.94Q1059.10-47.94 1064.46-44.46L1064.46-44.46L1064.46-44.46Q1067.46-47.47 1071.98-47.47L1071.98-47.47L1078.09-47.47L1078.09-47.47Q1079.50-47.47 1079.50-46.06L1079.50-46.06L1079.50-35.25L1079.50-35.25Q1079.50-33.84 1078.09-33.84L1078.09-33.84L1078.09-33.84Q1076.68-33.84 1076.68-35.25L1076.68-35.25L1076.68-43.71L1076.68-43.71Q1076.68-45.12 1075.27-45.12L1075.27-45.12L1071.98-45.12L1071.98-45.12Q1070.00-45.12 1067.56-43.90L1067.56-43.90L1067.56-43.90Q1066.43-42.77 1067.46-41.83L1067.46-41.83L1067.46-41.83Q1071.04-37.60 1071.04-30.83L1071.04-30.83L1071.04-30.83Q1071.04-24.06 1065.82-19.55L1065.82-19.55L1065.82-19.55Q1060.60-15.04 1051.20-15.04L1051.20-15.04L1051.20-15.04Q1041.80-15.04 1037.10-18.05L1037.10-18.05L1037.10-18.05Q1034.38-17.30 1032.73-16.26L1032.73-16.26L1032.73-16.26Q1031.09-15.23 1031.09-13.07ZM1134.02-1.88L1134.02-1.88L1134.02-1.88Q1142.19-1.88 1146.57-4.75L1146.57-4.75L1146.57-4.75Q1150.94-7.61 1150.94-12.22L1150.94-12.22L1150.94-12.22Q1150.94-18.42 1142.01-20.49L1142.01-20.49L1142.01-20.49Q1137.87-21.43 1132.04-22.28L1132.04-22.28L1132.04-22.28Q1126.31-23.12 1123.68-23.88L1123.68-23.88L1123.68-23.88Q1118.04-25.38 1115.22-28.06L1115.22-28.06L1115.22-28.06Q1112.40-30.74 1112.40-35.67L1112.40-35.67L1112.40-35.67Q1112.40-40.61 1117.43-44.27L1117.43-44.27L1117.43-44.27Q1122.45-47.94 1131.48-47.94L1131.48-47.94L1131.48-47.94Q1140.50-47.94 1147.55-40.89L1147.55-40.89L1147.55-40.89Q1148.40-39.95 1148.73-40.51L1148.73-40.51L1148.73-40.51Q1149.06-41.08 1149.06-41.83L1149.06-41.83L1149.06-45.59L1149.06-45.59Q1149.06-47 1150.47-47L1150.47-47L1150.47-47Q1151.88-47 1151.88-45.59L1151.88-45.59L1151.88-30.55L1151.88-30.55Q1151.88-29.14 1150.47-29.14L1150.47-29.14L1150.47-29.14Q1149.06-29.14 1149.06-30.55L1149.06-30.55L1149.06-35.25L1149.06-35.25Q1145.01-40.61 1138.72-43.62L1138.72-43.62L1138.72-43.62Q1135.43-45.12 1131.29-45.12L1131.29-45.12L1131.29-45.12Q1123.58-45.12 1119.40-42.35L1119.40-42.35L1119.40-42.35Q1115.22-39.57 1115.22-35.34L1115.22-35.34L1115.22-35.34Q1115.22-31.11 1118.84-28.81L1118.84-28.81L1118.84-28.81Q1122.45-26.51 1129.88-25.38L1129.88-25.38L1129.88-25.38Q1133.08-24.82 1136.37-24.35L1136.37-24.35L1136.37-24.35Q1139.66-23.88 1142.29-23.31L1142.29-23.31L1142.29-23.31Q1147.74-22.09 1150.75-19.55L1150.75-19.55L1150.75-19.55Q1153.76-17.01 1153.76-11.80L1153.76-11.80L1153.76-11.80Q1153.76-6.58 1148.82-2.82L1148.82-2.82L1148.82-2.82Q1143.89 0.94 1134.02 0.94L1134.02 0.94L1134.02 0.94Q1126.31 0.94 1119.73-3.57L1119.73-3.57L1119.73-3.57Q1117.85-4.89 1116.81-5.97L1116.81-5.97L1116.81-5.97Q1115.78-7.05 1115.50-6.49L1115.50-6.49L1115.50-6.49Q1115.22-5.92 1115.22-5.17L1115.22-5.17L1115.22-1.41L1115.22-1.41Q1115.22 0 1113.81 0L1113.81 0L1113.81 0Q1112.40 0 1112.40-1.41L1112.40-1.41L1112.40-16.45L1112.40-16.45Q1112.40-17.86 1113.81-17.86L1113.81-17.86L1113.81-17.86Q1115.22-17.86 1115.22-16.45L1115.22-16.45L1115.22-11.75L1115.22-11.75Q1119.07-6.30 1125.74-3.38L1125.74-3.38L1125.74-3.38Q1129.22-1.88 1134.02-1.88ZM1170.02-5.83L1170.02-5.83L1170.02-5.83Q1163.63-12.60 1163.63-23.50L1163.63-23.50L1163.63-23.50Q1163.63-34.40 1170.02-41.17L1170.02-41.17L1170.02-41.17Q1176.41-47.94 1186.66-47.94L1186.66-47.94L1186.66-47.94Q1196.90-47.94 1203.29-41.17L1203.29-41.17L1203.29-41.17Q1209.69-34.40 1209.69-23.50L1209.69-23.50L1209.69-23.50Q1209.69-12.60 1203.29-5.83L1203.29-5.83L1203.29-5.83Q1196.90 0.94 1186.66 0.94L1186.66 0.94L1186.66 0.94Q1176.41 0.94 1170.02-5.83ZM1186.66-45.12L1186.66-45.12L1186.66-45.12Q1177.54-45.12 1171.99-39.20L1171.99-39.20L1171.99-39.20Q1166.45-33.28 1166.45-23.45L1166.45-23.45L1166.45-23.45Q1166.45-13.63 1171.95-7.75L1171.95-7.75L1171.95-7.75Q1177.44-1.88 1186.66-1.88L1186.66-1.88L1186.66-1.88Q1195.87-1.88 1201.37-7.75L1201.37-7.75L1201.37-7.75Q1206.87-13.63 1206.87-23.45L1206.87-23.45L1206.87-23.45Q1206.87-33.28 1201.32-39.20L1201.32-39.20L1201.32-39.20Q1195.77-45.12 1186.66-45.12ZM1225.67-5.83L1225.67-5.83L1225.67-5.83Q1219.27-12.60 1219.27-23.50L1219.27-23.50L1219.27-23.50Q1219.27-34.40 1225.67-41.17L1225.67-41.17L1225.67-41.17Q1232.06-47.94 1242.30-47.94L1242.30-47.94L1242.30-47.94Q1252.55-47.94 1258.94-41.17L1258.94-41.17L1258.94-41.17Q1265.33-34.40 1265.33-23.50L1265.33-23.50L1265.33-23.50Q1265.33-12.60 1258.94-5.83L1258.94-5.83L1258.94-5.83Q1252.55 0.94 1242.30 0.94L1242.30 0.94L1242.30 0.94Q1232.06 0.94 1225.67-5.83ZM1242.30-45.12L1242.30-45.12L1242.30-45.12Q1233.19-45.12 1227.64-39.20L1227.64-39.20L1227.64-39.20Q1222.09-33.28 1222.09-23.45L1222.09-23.45L1222.09-23.45Q1222.09-13.63 1227.59-7.75L1227.59-7.75L1227.59-7.75Q1233.09-1.88 1242.30-1.88L1242.30-1.88L1242.30-1.88Q1251.52-1.88 1257.02-7.75L1257.02-7.75L1257.02-7.75Q1262.51-13.63 1262.51-23.45L1262.51-23.45L1262.51-23.45Q1262.51-33.28 1256.97-39.20L1256.97-39.20L1256.97-39.20Q1251.42-45.12 1242.30-45.12ZM1274.26-2.82L1274.26-2.82L1280.84-2.82L1280.84-2.82Q1282.25-2.82 1282.25-4.23L1282.25-4.23L1282.25-42.77L1282.25-42.77Q1282.25-44.18 1280.84-44.18L1280.84-44.18L1274.26-44.18L1274.26-44.18Q1272.85-44.18 1272.85-45.59L1272.85-45.59L1272.85-45.59Q1272.85-47 1274.26-47L1274.26-47L1283.66-47L1283.66-47Q1285.07-47 1285.07-45.59L1285.07-45.59L1285.07-40.33L1285.07-40.33Q1285.07-39.39 1285.45-39.01L1285.45-39.01L1285.45-39.01Q1285.83-38.63 1286.58-39.39L1286.58-39.39L1286.58-39.39Q1294.19-47.94 1303.12-47.94L1303.12-47.94L1303.12-47.94Q1312.05-47.94 1316.89-43.10L1316.89-43.10L1316.89-43.10Q1321.73-38.26 1321.73-29.14L1321.73-29.14L1321.73-4.23L1321.73-4.23Q1321.73-2.82 1323.14-2.82L1323.14-2.82L1329.72-2.82L1329.72-2.82Q1331.13-2.82 1331.13-1.41L1331.13-1.41L1331.13-1.41Q1331.13 0 1329.72 0L1329.72 0L1311.86 0L1311.86 0Q1310.45 0 1310.45-1.41L1310.45-1.41L1310.45-1.41Q1310.45-2.82 1311.86-2.82L1311.86-2.82L1317.50-2.82L1317.50-2.82Q1318.91-2.82 1318.91-4.23L1318.91-4.23L1318.91-29.14L1318.91-29.14Q1318.91-37.13 1314.78-41.13L1314.78-41.13L1314.78-41.13Q1310.64-45.12 1303.50-45.12L1303.50-45.12L1303.50-45.12Q1296.35-45.12 1289.96-38.73L1289.96-38.73L1289.96-38.73Q1287.14-35.91 1285.07-32.43L1285.07-32.43L1285.07-4.23L1285.07-4.23Q1285.07-2.82 1286.48-2.82L1286.48-2.82L1292.12-2.82L1292.12-2.82Q1293.53-2.82 1293.53-1.41L1293.53-1.41L1293.53-1.41Q1293.53 0 1292.12 0L1292.12 0L1274.26 0L1274.26 0Q1272.85 0 1272.85-1.41L1272.85-1.41L1272.85-1.41Q1272.85-2.82 1274.26-2.82Z" fill="url(#editing-outline-gradient)"></path></g></g><style>text {
  font-size: 64px;
  font-family: Arial Black;
  dominant-baseline: central;
  text-anchor: middle;
}</style></svg>