<svg width="940.4375px" height="190.4px" xmlns="http://www.w3.org/2000/svg" viewBox="-220.21875 -20.200000000000003 940.4375 190.4" style="background: none;" preserveAspectRatio="xMidYMid"><defs><linearGradient id="editing-outline-gradient" x1="0.5348994967025017" x2="0.46510050329749836" y1="1.4993908270190957" y2="-0.49939082701909565"><stop offset="0" stop-color="none"></stop><stop offset="1" stop-color="#d457d1"></stop></linearGradient><filter id="editing-outline" x="-100%" y="-100%" width="300%" height="300%"><feMorphology in="SourceGraphic" operator="dilate" radius="5" result="outline"></feMorphology><feComposite operator="out" in="outline" in2="SourceAlpha"></feComposite></filter></defs><g filter="url(#editing-outline)"><g transform="translate(-92.5350112915039, 111.66000175476074)"><path d="M48.22-34.03L48.22-34.03Q57.62-29.99 57.62-18.33L57.62-18.33L57.62-18.33Q57.62-8.84 51.61-4.42L51.61-4.42L51.61-4.42Q45.59 0 34.69 0L34.69 0L11.75 0L11.75-65.42L35.34-65.42L35.34-65.42Q44.93-65.42 50.20-61.19L50.20-61.19L50.20-61.19Q55.46-56.96 55.46-48.32L55.46-48.32L55.46-48.32Q55.46-38.45 48.22-34.03L48.22-34.03ZM34.31-57.53L20.02-57.53L20.02-37.32L34.31-37.32L34.31-37.32Q40.80-37.32 43.66-39.67L43.66-39.67L43.66-39.67Q46.53-42.02 46.53-47.94L46.53-47.94L46.53-47.94Q46.53-53.39 43.66-55.46L43.66-55.46L43.66-55.46Q40.80-57.53 34.31-57.53L34.31-57.53ZM34.69-7.90L34.69-7.90Q42.11-7.90 45.40-10.15L45.40-10.15L45.40-10.15Q48.69-12.41 48.69-18.71L48.69-18.71L48.69-18.71Q48.69-25.00 45.35-27.26L45.35-27.26L45.35-27.26Q42.02-29.52 34.50-29.52L34.50-29.52L20.02-29.52L20.02-7.90L34.69-7.90ZM96.91-50.20L99.83-50.20L99.83-41.08L98.42-41.08L98.42-41.08Q94-41.08 90.47-39.48L90.47-39.48L90.47-39.48Q86.95-37.88 84.60-34.87L84.60-34.87L84.60 0L76.33 0L76.33-38.16L74.26-49.07L82.53-49.07L84.22-40.33L84.22-40.33Q88.08-45.97 90.76-48.08L90.76-48.08L90.76-48.08Q93.44-50.20 96.91-50.20L96.91-50.20ZM153.50 0L145.23 0L143.91-7.05L143.91-7.05Q140.25-3.01 135.97-0.94L135.97-0.94L135.97-0.94Q131.69 1.13 126.34 1.13L126.34 1.13L126.34 1.13Q119.66 1.13 115.53-2.68L115.53-2.68L115.53-2.68Q111.39-6.49 111.39-12.78L111.39-12.78L111.39-12.78Q111.39-20.96 117.97-24.82L117.97-24.82L117.97-24.82Q124.55-28.67 134.89-28.67L134.89-28.67L134.89-28.67Q138.65-28.67 143.16-28.20L143.16-28.20L143.16-31.58L143.16-31.58Q143.16-36.66 140.39-39.72L140.39-39.72L140.39-39.72Q137.62-42.77 133.20-42.77L133.20-42.77L133.20-42.77Q127.93-42.77 123.66-41.36L123.66-41.36L123.66-41.36Q119.38-39.95 114.87-36.94L114.87-36.94L114.87-44.93L114.87-44.93Q119.29-47.85 123.89-49.02L123.89-49.02L123.89-49.02Q128.50-50.20 134.42-50.20L134.42-50.20L134.42-50.20Q141.94-50.20 146.69-45.40L146.69-45.40L146.69-45.40Q151.43-40.61 151.43-32.71L151.43-32.71L151.43-10.90L153.50 0ZM128.03-5.83L128.03-5.83Q132.54-5.83 136.11-7.71L136.11-7.71L136.11-7.71Q139.68-9.59 143.16-13.16L143.16-13.16L143.16-22.37L134.51-22.37L134.51-22.37Q120.32-22.37 120.32-13.25L120.32-13.25L120.32-13.25Q120.32-9.87 122.48-7.85L122.48-7.85L122.48-7.85Q124.64-5.83 128.03-5.83L128.03-5.83ZM172.96-60.16L172.96-60.16Q170.33-60.16 168.68-61.85L168.68-61.85L168.68-61.85Q167.04-63.54 167.04-66.18L167.04-66.18L167.04-66.18Q167.04-68.81 168.68-70.50L168.68-70.50L168.68-70.50Q170.33-72.19 172.96-72.19L172.96-72.19L172.96-72.19Q175.59-72.19 177.24-70.50L177.24-70.50L177.24-70.50Q178.88-68.81 178.88-66.18L178.88-66.18L178.88-66.18Q178.88-63.54 177.24-61.85L177.24-61.85L177.24-61.85Q175.59-60.16 172.96-60.16L172.96-60.16ZM168.82-49.07L177.10-49.07L177.10 0L168.82 0L168.82-49.07ZM221.75-50.20L221.75-50.20Q228.70-50.20 232.27-45.92L232.27-45.92L232.27-45.92Q235.85-41.64 235.85-34.03L235.85-34.03L235.85 0L227.57 0L227.57-32.90L227.57-32.90Q227.57-37.60 225.60-40.19L225.60-40.19L225.60-40.19Q223.63-42.77 219.58-42.77L219.58-42.77L219.58-42.77Q214.98-42.77 211.83-41.27L211.83-41.27L211.83-41.27Q208.68-39.76 204.83-36.38L204.83-36.38L204.83 0L196.55 0L196.55-38.16L194.49-49.07L202.76-49.07L204.07-42.21L204.07-42.21Q208.49-46.44 212.30-48.32L212.30-48.32L212.30-48.32Q216.11-50.20 221.75-50.20L221.75-50.20ZM327.78-65.42L336.05-65.42L336.05 0L327.78 0L292.62-50.48L292.62 0L284.35 0L284.35-65.42L292.62-65.42L327.78-14.95L327.78-65.42ZM397.81-24.53L397.81-21.81L363.03-21.81L363.03-21.81Q363.78-14.57 367.87-10.29L367.87-10.29L367.87-10.29Q371.96-6.02 379.01-6.02L379.01-6.02L379.01-6.02Q383.24-6.02 387.23-7.75L387.23-7.75L387.23-7.75Q391.23-9.49 395.36-12.88L395.36-12.88L395.74-12.88L395.74-4.61L395.74-4.61Q391.60-1.60 387.56-0.23L387.56-0.23L387.56-0.23Q383.52 1.13 378.91 1.13L378.91 1.13L378.91 1.13Q371.39 1.13 365.85-2.16L365.85-2.16L365.85-2.16Q360.30-5.45 357.34-11.33L357.34-11.33L357.34-11.33Q354.38-17.20 354.38-24.82L354.38-24.82L354.38-24.82Q354.38-32.05 357.06-37.84L357.06-37.84L357.06-37.84Q359.74-43.62 364.72-46.91L364.72-46.91L364.72-46.91Q369.70-50.20 376.38-50.20L376.38-50.20L376.38-50.20Q383.14-50.20 387.99-46.86L387.99-46.86L387.99-46.86Q392.83-43.52 395.32-37.69L395.32-37.69L395.32-37.69Q397.81-31.87 397.81-24.53L397.81-24.53ZM376.47-43.33L376.47-43.33Q370.64-43.33 367.16-39.10L367.16-39.10L367.16-39.10Q363.69-34.87 363.03-28.20L363.03-28.20L389.25-28.20L389.25-28.20Q388.60-35.06 385.45-39.20L385.45-39.20L385.45-39.20Q382.30-43.33 376.47-43.33L376.47-43.33ZM424.22-66.55L424.22-49.07L437.76-49.07L437.76-41.92L424.22-41.92L424.22-13.82L424.22-13.82Q424.22-10.34 425.77-8.22L425.77-8.22L425.77-8.22Q427.32-6.11 430.33-6.11L430.33-6.11L430.33-6.11Q432.40-6.11 434.04-6.53L434.04-6.53L434.04-6.53Q435.69-6.96 437.76-7.90L437.76-7.90L437.76-0.56L437.76-0.56Q435.60 0.47 433.62 0.80L433.62 0.80L433.62 0.80Q431.65 1.13 428.83 1.13L428.83 1.13L428.83 1.13Q422.81 1.13 419.38-2.73L419.38-2.73L419.38-2.73Q415.95-6.58 415.95-12.97L415.95-12.97L415.95-41.92L406.55-41.92L406.55-49.07L415.95-49.07L415.95-62.23L424.22-66.55ZM511.74-49.07L519.82-49.07L504.40 0L493.69 0L482.13-37.69L470.75 0L460.04 0L444.62-49.07L453.08-49.07L465.86-7.99L478.08-49.07L486.54-49.07L498.95-7.99L511.74-49.07ZM552.72 1.13L552.72 1.13Q542.00 1.13 535.99-5.88L535.99-5.88L535.99-5.88Q529.97-12.88 529.97-24.53L529.97-24.53L529.97-24.53Q529.97-36.19 535.99-43.19L535.99-43.19L535.99-43.19Q542.00-50.20 552.72-50.20L552.72-50.20L552.72-50.20Q563.44-50.20 569.45-43.19L569.45-43.19L569.45-43.19Q575.47-36.19 575.47-24.53L575.47-24.53L575.47-24.53Q575.47-12.88 569.45-5.88L569.45-5.88L569.45-5.88Q563.44 1.13 552.72 1.13L552.72 1.13ZM552.72-6.02L552.72-6.02Q559.58-6.02 563.06-11.09L563.06-11.09L563.06-11.09Q566.54-16.17 566.54-24.53L566.54-24.53L566.54-24.53Q566.54-32.90 563.06-37.98L563.06-37.98L563.06-37.98Q559.58-43.05 552.72-43.05L552.72-43.05L552.72-43.05Q545.86-43.05 542.43-37.98L542.43-37.98L542.43-37.98Q539.00-32.90 539.00-24.53L539.00-24.53L539.00-24.53Q539.00-16.17 542.43-11.09L542.43-11.09L542.43-11.09Q545.86-6.02 552.72-6.02L552.72-6.02ZM613.91-50.20L616.83-50.20L616.83-41.08L615.42-41.08L615.42-41.08Q611-41.08 607.47-39.48L607.47-39.48L607.47-39.48Q603.95-37.88 601.60-34.87L601.60-34.87L601.60 0L593.33 0L593.33-38.16L591.26-49.07L599.53-49.07L601.22-40.33L601.22-40.33Q605.08-45.97 607.76-48.08L607.76-48.08L607.76-48.08Q610.44-50.20 613.91-50.20L613.91-50.20ZM663.17 0L648.69-22.94L640.99-14.29L640.99 0L632.71 0L632.71-70.88L640.99-70.88L640.99-25.10L662.42-49.07L672.19-49.07L654.24-29.05L673.32 0L663.17 0Z" fill="url(#editing-outline-gradient)"></path></g></g><style>text {
  font-size: 64px;
  font-family: Arial Black;
  dominant-baseline: central;
  text-anchor: middle;
}</style></svg>