<svg width="593" height="155" viewBox="0 0 593 155" fill="none" xmlns="http://www.w3.org/2000/svg">
<path d="M32.144 1.32009C37.6973 1.32009 42.4013 2.20209 46.256 3.96609C50.176 5.66475 53.1487 8.18008 55.174 11.5121C57.2647 14.7788 58.31 18.7968 58.31 23.5661C58.31 28.3354 57.2647 32.3861 55.174 35.7181C53.1487 38.9848 50.176 41.5001 46.256 43.2641C42.4013 44.9628 37.6973 45.8121 32.144 45.8121H19.992V66.0001H0V1.32009H32.144ZM28.91 31.3081C31.85 31.3081 34.1367 30.6874 35.77 29.4461C37.4033 28.1394 38.22 26.1794 38.22 23.5661C38.22 20.9528 37.4033 19.0254 35.77 17.7841C34.1367 16.4774 31.85 15.8241 28.91 15.8241H19.992V31.3081H28.91Z" fill="black"/>
<path d="M117.625 66.0001H97.0453L93.4193 52.5741H73.7213L69.9973 66.0001H50.0053L71.7613 1.32009H95.7713L117.625 66.0001ZM77.0533 39.6381H90.1853L83.6193 15.5301L77.0533 39.6381Z" fill="black"/>
<path d="M152.473 1.32009C160.509 1.32009 166.716 3.18209 171.093 6.90609C175.536 10.5648 177.757 15.4648 177.757 21.6061C177.757 28.4661 175.601 33.6601 171.289 37.1881C166.977 40.7161 160.771 42.4801 152.669 42.4801L150.709 43.5581H138.949V66.0001H119.349V1.32009H152.473ZM149.239 29.9361C152.049 29.9361 154.139 29.4134 155.511 28.3681C156.949 27.2574 157.667 25.4608 157.667 22.9781C157.667 20.4954 156.949 18.6988 155.511 17.5881C154.139 16.4774 152.049 15.9221 149.239 15.9221H138.949V29.9361H149.239ZM161.097 34.1501L181.481 66.0001H159.627L143.849 37.6781L161.097 34.1501Z" fill="black"/>
<path d="M245.205 66.0001H224.625L220.999 52.5741H201.301L197.577 66.0001H177.585L199.341 1.32009H223.351L245.205 66.0001ZM204.633 39.6381H217.765L211.199 15.5301L204.633 39.6381Z" fill="black"/>
<path d="M303.535 46.7921C302.359 51.5614 300.366 55.4488 297.557 58.4541C294.813 61.4594 291.448 63.6481 287.463 65.0201C283.543 66.3268 279.198 66.9801 274.429 66.9801C267.765 66.9801 261.983 65.6734 257.083 63.0601C252.248 60.3814 248.524 56.5594 245.911 51.5941C243.298 46.6288 241.991 40.6508 241.991 33.6601C241.991 26.6694 243.298 20.6914 245.911 15.7261C248.524 10.7608 252.248 6.97142 257.083 4.35809C261.983 1.67942 267.732 0.340088 274.331 0.340088C279.035 0.340088 283.347 0.993421 287.267 2.30009C291.252 3.60675 294.617 5.63209 297.361 8.37609C300.105 11.1201 301.967 14.6808 302.947 19.0581L285.601 26.0161C284.882 21.8348 283.608 19.0581 281.779 17.6861C280.015 16.3141 277.728 15.6281 274.919 15.6281C272.306 15.6281 270.052 16.3141 268.157 17.6861C266.328 18.9928 264.923 20.9854 263.943 23.6641C263.028 26.2774 262.571 29.6094 262.571 33.6601C262.571 37.6454 262.996 40.9774 263.845 43.6561C264.76 46.3348 266.132 48.3601 267.961 49.7321C269.856 51.0388 272.306 51.6921 275.311 51.6921C277.99 51.6921 280.244 50.9081 282.073 49.3401C283.902 47.7721 285.111 45.3221 285.699 41.9901L303.535 46.7921Z" fill="black"/>
<path d="M368.089 1.32009V66.0001H347.999V1.32009H368.089ZM327.027 1.32009V66.0001H307.035V1.32009H327.027ZM358.975 25.9181V40.9121H316.737V25.9181H358.975Z" fill="black"/>
<path d="M437.484 66.0001H416.904L413.278 52.5741H393.58L389.856 66.0001H369.864L391.62 1.32009H415.63L437.484 66.0001ZM396.912 39.6381H410.044L403.478 15.5301L396.912 39.6381Z" fill="black"/>
<path d="M459.2 1.32009V66.0001H439.208V1.32009H459.2Z" fill="black"/>
<path d="M528.209 1.32009V66.0001H506.257L488.617 33.9541L484.501 25.2321H484.305L484.697 37.9721V66.0001H467.253V1.32009H489.107L506.747 33.3661L510.961 42.0881H511.059L510.667 29.3481V1.32009H528.209Z" fill="black"/>
<path d="M563.111 0.340088C569.252 0.340088 574.708 1.18942 579.477 2.88808C584.246 4.52142 588.428 7.03675 592.021 10.4341L583.299 23.2721C580.359 20.7894 577.223 18.8621 573.891 17.4901C570.624 16.0528 566.998 15.3341 563.013 15.3341C560.988 15.3341 559.354 15.5301 558.113 15.9221C556.872 16.3141 555.957 16.8694 555.369 17.5881C554.846 18.2414 554.585 18.9928 554.585 19.8421C554.585 20.8874 555.206 21.7368 556.447 22.3901C557.754 23.0434 559.55 23.6314 561.837 24.1541L571.637 26.4081C578.17 27.9108 583.038 30.1321 586.239 33.0721C589.44 35.9468 591.041 39.8994 591.041 44.9301C591.041 49.8301 589.8 53.9134 587.317 57.1801C584.9 60.4468 581.568 62.8968 577.321 64.5301C573.074 66.1634 568.272 66.9801 562.915 66.9801C558.668 66.9801 554.52 66.5554 550.469 65.7061C546.484 64.8568 542.825 63.6481 539.493 62.0801C536.161 60.4468 533.286 58.5194 530.869 56.2981L539.493 43.0681C541.257 44.7668 543.413 46.3021 545.961 47.6741C548.509 48.9808 551.22 50.0261 554.095 50.8101C556.97 51.5941 559.746 51.9861 562.425 51.9861C564.32 51.9861 565.855 51.8228 567.031 51.4961C568.272 51.1041 569.154 50.5814 569.677 49.9281C570.2 49.2748 570.461 48.4908 570.461 47.5761C570.461 46.4654 570.036 45.5834 569.187 44.9301C568.338 44.2114 566.737 43.5908 564.385 43.0681L553.605 40.6181C550.077 39.8341 546.81 38.7561 543.805 37.3841C540.8 36.0121 538.382 34.1174 536.553 31.7001C534.789 29.2174 533.907 25.9834 533.907 21.9981C533.907 17.7514 535.05 13.9948 537.337 10.7281C539.624 7.46142 542.956 4.91342 547.333 3.08409C551.71 1.25475 556.97 0.340088 563.111 0.340088Z" fill="black"/>
<path d="M138.62 152H118.04L114.414 138.574H94.716L90.992 152H71L92.756 87.3201H116.766L138.62 152ZM98.048 125.638H111.18L104.614 101.53L98.048 125.638Z" fill="black"/>
<path d="M173.468 87.3201C181.504 87.3201 187.711 89.1821 192.088 92.9061C196.531 96.5647 198.752 101.465 198.752 107.606C198.752 114.466 196.596 119.66 192.284 123.188C187.972 126.716 181.766 128.48 173.664 128.48L171.704 129.558H159.944V152H140.344V87.3201H173.468ZM170.234 115.936C173.044 115.936 175.134 115.413 176.506 114.368C177.944 113.257 178.662 111.461 178.662 108.978C178.662 106.495 177.944 104.699 176.506 103.588C175.134 102.477 173.044 101.922 170.234 101.922H159.944V115.936H170.234ZM182.092 120.15L202.476 152H180.622L164.844 123.678L182.092 120.15Z" fill="black"/>
<path d="M204.852 152V87.3201H256.988V102.314H224.844V112.8H250.52V126.716H224.844V137.006H258.262V152H204.852Z" fill="black"/>
<path d="M304.668 137.006H335.44V152H284.676V87.3201H304.668V137.006Z" fill="black"/>
<path d="M359.893 87.3201V152H339.901V87.3201H359.893Z" fill="black"/>
<path d="M430.273 87.3201L407.929 152H384.213L361.869 87.3201H382.743L393.131 124.462L396.463 137.104L399.599 124.658L410.085 87.3201H430.273Z" fill="black"/>
<path d="M432.262 152V87.3201H484.398V102.314H452.254V112.8H477.93V126.716H452.254V137.006H485.672V152H432.262Z" fill="black"/>
<path d="M515.557 87V100.962L513.368 120H496.747L494.557 100.962V87H515.557Z" fill="black"/>
<path d="M505.058 155C513.657 155 520.557 148.099 520.557 139.5C520.557 130.901 513.551 124 505.058 124C496.459 124 489.559 130.901 489.559 139.5C489.452 148.099 496.459 155 505.058 155Z" fill="#E6007A"/>
</svg>
